<?xml version="1.0" encoding="UTF-8" standalone="no"?>
<svg width="400px" height="400px" viewBox="0 0 400 400" version="1.1" xmlns="http://www.w3.org/2000/svg" xmlns:xlink="http://www.w3.org/1999/xlink">
    <!-- Generator: Sketch 46.2 (44496) - http://www.bohemiancoding.com/sketch -->
    <title>Artboard 2</title>
    <desc>Created with Sketch.</desc>
    <defs></defs>
    <g id="Page-1" stroke="none" stroke-width="1" fill="none" fill-rule="evenodd">
        <g id="Artboard-2" fill-rule="nonzero" fill="#9D9D9D">
            <g id="checkbox--light" transform="translate(0.000000, 30.000000)">
                <path d="M318.653844,20.3451103 C305.090302,6.78170344 288.756539,0 269.657615,0 L69.339855,0 C50.2409309,0 33.9080113,6.78170344 20.3427829,20.3451103 C6.78177092,33.9102038 0,50.2395877 0,69.3416949 L0,269.658305 C0,288.756196 6.78177092,305.08811 20.3427829,318.654046 C33.9080113,332.218297 50.2409309,339 69.339855,339 L269.657615,339 C288.756539,339 305.085242,332.218297 318.654687,318.654046 C332.219072,305.08811 339,288.757039 339,269.658305 L339,69.3416949 C338.996627,50.2429608 332.214856,33.9102038 318.653844,20.3451103 Z M308.178445,269.658305 C308.178445,280.24913 304.408921,289.318667 296.865655,296.866074 C289.32239,304.409265 280.254448,308.175379 269.656772,308.175379 L69.339855,308.175379 C58.7455516,308.175379 49.6767671,304.409265 42.1318151,296.866074 C34.5885496,289.319511 30.8164952,280.24913 30.8164952,269.658305 L30.8164952,69.3416949 C30.8164952,58.7483402 34.5885496,49.679646 42.1318151,42.1339257 C49.6767671,34.589892 58.7455516,30.8187185 69.339855,30.8187185 L269.657615,30.8187185 C280.254448,30.8187185 289.32239,34.5907353 296.866498,42.1339257 C304.409764,49.6788027 308.179288,58.7474969 308.179288,69.3416949 L308.179288,269.658305 L308.178445,269.658305 Z" id="Shape"></path>
            </g>
        </g>
    </g>
</svg>