<?xml version="1.0" encoding="UTF-8" standalone="no"?>
<svg width="400px" height="400px" viewBox="0 0 400 400" version="1.1" xmlns="http://www.w3.org/2000/svg" xmlns:xlink="http://www.w3.org/1999/xlink">
    <!-- Generator: Sketch 46.2 (44496) - http://www.bohemiancoding.com/sketch -->
    <title>Artboard 2</title>
    <desc>Created with Sketch.</desc>
    <defs></defs>
    <g id="Page-1" stroke="none" stroke-width="1" fill="none" fill-rule="evenodd">
        <g id="Artboard-2" fill-rule="nonzero" fill="#E01E3E">
            <g id="checkbox-checked--light" transform="translate(0.000000, 30.000000)">
                <path d="M333.712,186.186947 C332.752,185.702737 331.790316,185.461053 330.821053,185.461053 C328.734316,185.461053 326.896,186.261895 325.294316,187.866947 L309.905684,203.253053 C308.467368,204.697263 307.744842,206.458105 307.744842,208.544 L307.744842,269.607579 C307.744842,280.188632 303.986526,289.240421 296.448,296.777263 C288.915368,304.309895 279.857684,308.076632 269.278316,308.076632 L69.2429474,308.076632 C58.6627368,308.076632 49.6058947,304.309895 42.0732632,296.777263 C34.5389474,289.241263 30.7738947,280.189474 30.7738947,269.607579 L30.7738947,69.5764211 C30.7738947,58.9978947 34.5389474,49.9418947 42.0732632,42.4067368 C49.6058947,34.8732632 58.6627368,31.1073684 69.2429474,31.1073684 L269.28,31.1073684 C272.806737,31.1073684 276.412632,31.5882105 280.098526,32.5507368 C281.061053,32.8690526 281.781895,33.0315789 282.256842,33.0315789 C284.343579,33.0315789 286.187789,32.2324211 287.789474,30.6298947 L299.570526,18.8488421 C301.492211,16.928 302.216421,14.6021053 301.731368,11.8795789 C301.250526,9.31452632 299.806316,7.47031579 297.402105,6.34947368 C288.752,2.34778947 279.370947,0.337684211 269.273263,0.337684211 L69.2429474,0.337684211 C50.1692632,0.337684211 33.8593684,7.10989474 20.3149474,20.6543158 C6.77221053,34.2004211 0,50.5077895 0,69.5823158 L0,269.618526 C0,288.689684 6.77221053,304.998737 20.3157895,318.543158 C33.8602105,332.090947 50.1701053,338.863158 69.2437895,338.863158 L269.278316,338.863158 C288.349474,338.863158 304.661053,332.090947 318.205474,318.543158 C331.750737,304.998737 338.528842,288.690526 338.528842,269.618526 L338.528842,193.157895 C338.527158,189.794526 336.916211,187.472 333.712,186.186947 Z" id="Shape"></path>
                <path d="M394.063158,48.1818947 L367.613474,21.7322105 C363.766737,17.8863158 359.195789,15.9629474 353.904842,15.9629474 C348.620632,15.9629474 344.046316,17.8863158 340.202947,21.7322105 L184.644211,177.290105 L121.415579,114.057263 C117.568,110.208842 112.998737,108.288 107.711158,108.288 C102.422737,108.288 97.8551579,110.208842 94.0067368,114.057263 L67.5604211,140.503579 C63.7136842,144.350316 61.7886316,148.919579 61.7886316,154.210526 C61.7886316,159.498947 63.7136842,164.066526 67.5604211,167.914947 L170.943158,271.297684 C174.790737,275.146947 179.36,277.066947 184.647579,277.066947 C189.935158,277.066947 194.503579,275.147789 198.352,271.297684 L394.060632,75.5898947 C397.904842,71.744 399.832421,67.1738947 399.832421,61.8854737 C399.832421,56.5970526 397.909895,52.0277895 394.063158,48.1818947 Z" id="Shape"></path>
            </g>
        </g>
    </g>
</svg>