<?xml version="1.0" encoding="UTF-8" standalone="no"?>
<svg width="400px" height="400px" viewBox="0 0 400 400" version="1.1" xmlns="http://www.w3.org/2000/svg" xmlns:xlink="http://www.w3.org/1999/xlink">
    <!-- Generator: Sketch 46.2 (44496) - http://www.bohemiancoding.com/sketch -->
    <title>Artboard 2</title>
    <desc>Created with Sketch.</desc>
    <defs></defs>
    <g id="Page-1" stroke="none" stroke-width="1" fill="none" fill-rule="evenodd">
        <g id="Artboard-2" fill-rule="nonzero" fill="#76BC21">
            <g id="checkbox--green" transform="translate(0.000000, 30.000000)">
                <path d="M318.651567,20.3450597 C305.088194,6.78168657 288.754634,0 269.655948,0 L69.3406791,0 C50.2419925,0 33.9092761,6.78168657 20.3442164,20.3450597 C6.78337313,33.9101194 0.00168656716,50.2394627 0.00168656716,69.3415224 L0.00168656716,269.657634 C0.00168656716,288.755478 6.78337313,305.087351 20.3442164,318.653254 C33.9092761,332.21747 50.2419925,338.999157 69.3406791,338.999157 L269.655948,338.999157 C288.754634,338.999157 305.083134,332.21747 318.65241,318.653254 C332.216627,305.087351 338.99747,288.756321 338.99747,269.657634 L338.99747,69.3415224 C338.994097,50.2428358 332.21241,33.9101194 318.651567,20.3450597 Z M308.176299,269.657634 C308.176299,280.248433 304.406821,289.317948 296.863649,296.865336 C289.320478,304.408507 280.252649,308.174612 269.655104,308.174612 L69.3406791,308.174612 C58.7465075,308.174612 49.6778358,304.408507 42.1329776,296.865336 C34.589806,289.318791 30.8177985,280.248433 30.8177985,269.657634 L30.8177985,69.3415224 C30.8177985,58.748194 34.589806,49.6795224 42.1329776,42.1338209 C49.6778358,34.589806 58.7465075,30.8186418 69.3406791,30.8186418 L269.655948,30.8186418 C280.252649,30.8186418 289.320478,34.5906493 296.864493,42.1338209 C304.407664,49.6786791 308.177142,58.7473507 308.177142,69.3415224 L308.177142,269.657634 L308.176299,269.657634 Z" id="Shape"></path>
            </g>
        </g>
    </g>
</svg>