<svg xmlns="http://www.w3.org/2000/svg" xmlns:xlink="http://www.w3.org/1999/xlink" width="20" height="18" viewBox="0 0 20 18">
    <defs>
        <path id="a" d="M14.526 9.5c2.21 0 3.895 1.7 3.895 3.9 0 3-3.053 5.8-8.105 10.2l-.21.2-.211-.2c-5.263-4.4-8.316-7.2-8.316-10.2 0-2.2 1.684-3.9 3.895-3.9C6.737 9.5 8 10 8.737 11l1.158 1.4 1.263-1.4c.947-.9 2.105-1.5 3.368-1.5zm0-1.5c-1.79 0-3.368.9-4.526 2.1C8.842 8.7 7.263 8 5.474 8 2.42 8 0 10.3 0 13.4c0 3.7 3.368 6.7 8.632 11.3L10 26l1.368-1.3C16.632 20.2 20 17.1 20 13.4c0-3.1-2.421-5.4-5.474-5.4z"/>
    </defs>
    <use fill="#C4C4C4" fill-rule="nonzero" transform="translate(0 -8)" xlink:href="#a"/>
</svg>
