<svg xmlns="http://www.w3.org/2000/svg" xmlns:xlink="http://www.w3.org/1999/xlink" width="38" height="38" viewBox="0 0 38 38">
    <defs>
        <path id="a" d="M15.074 15.101h2.408v2.35c0 .324.27.587.602.587a.595.595 0 0 0 .602-.587V15.1h2.409a.595.595 0 0 0 .602-.587.595.595 0 0 0-.602-.588h-2.409v-2.349a.595.595 0 0 0-.602-.587.595.595 0 0 0-.602.587v2.35h-2.408a.595.595 0 0 0-.602.587c0 .324.27.587.602.587m8.056 12.557c0-.646-.545-1.171-1.214-1.171-.67 0-1.214.525-1.214 1.17 0 .645.544 1.168 1.214 1.168.669 0 1.214-.523 1.214-1.167m1.204 0c0 1.291-1.085 2.342-2.418 2.342-1.334 0-2.418-1.05-2.418-2.342 0-1.294 1.084-2.346 2.418-2.346 1.333 0 2.418 1.052 2.418 2.346m-9.479 0c0-.646-.544-1.171-1.214-1.171-.669 0-1.213.525-1.213 1.17 0 .645.544 1.168 1.213 1.168.67 0 1.214-.523 1.214-1.167m1.205 0c0 1.291-1.086 2.342-2.419 2.342-1.332 0-2.417-1.05-2.417-2.342 0-1.294 1.085-2.346 2.417-2.346 1.333 0 2.419 1.052 2.419 2.346M32 9.588c0 .325-.27.588-.602.588H28.387c-.436 0-1.02.461-1.105.864l-2.534 10.35c-.405 1.553-1.89 2.692-3.531 2.72h-8.911a.595.595 0 0 1-.602-.588c0-.325.269-.587.602-.587h8.9c1.1-.018 2.101-.786 2.373-1.826l.059-.241-.007.001H12.126c-.74 0-1.373-.462-1.54-1.125L9.017 13.51a.587.587 0 0 1 .441-.71.603.603 0 0 1 .729.43l1.568 6.233c.034.132.193.232.371.232h11.505c.1 0 .192.03.276.073l2.2-8.984c.202-.956 1.297-1.833 2.317-1.782h2.974c.333 0 .602.262.602.587"/>
    </defs>
    <g fill="none" fill-rule="evenodd">
        <mask id="b" fill="#fff">
            <use xlink:href="#a"/>
        </mask>
        <use fill="#9D9D9D" xlink:href="#a"/>
        <g fill="#9D9D9D" mask="url(#b)">
            <path d="M0 0h40v40H0z"/>
        </g>
    </g>
</svg>
