<svg xmlns="http://www.w3.org/2000/svg" xmlns:xlink="http://www.w3.org/1999/xlink" width="29" height="33" viewBox="0 0 29 33">
    <defs>
        <path id="a" d="M28 15.56c-.099-.294-.394-.589-.69-.589H16.475l.788-4.121c.099-.295-.098-.59-.295-.687-.197-.197-.493-.197-.788-.099L.42 17.621c-.296.196-.493.49-.394.785.098.295.394.589.69.589H11.55l-.788 4.122c-.098.294 0 .589.296.687a.754.754 0 0 0 .492.196c.099 0 .197 0 .296-.098l15.76-7.557c.295-.098.394-.49.394-.785zm-14.775 2.748c0-.196 0-.393-.197-.589-.099-.196-.394-.294-.591-.294H4.064l11.426-5.496-.69 3.533c0 .196 0 .393.198.589.098.196.394.294.59.294h8.472L12.535 21.94l.69-3.631z"/>
    </defs>
    <g fill="none" fill-rule="evenodd">
        <mask id="b" fill="#fff">
            <use xlink:href="#a"/>
        </mask>
        <use fill="#76bc21" fill-rule="nonzero" xlink:href="#a"/>
        <g fill="#76bc21" mask="url(#b)">
            <path d="M0-7h50v50H0z"/>
        </g>
    </g>
</svg>
