<?xml version="1.0" encoding="UTF-8" standalone="no"?>
<svg width="400px" height="400px" viewBox="0 0 400 400" version="1.1" xmlns="http://www.w3.org/2000/svg" xmlns:xlink="http://www.w3.org/1999/xlink">
    <!-- Generator: Sketch 46.2 (44496) - http://www.bohemiancoding.com/sketch -->
    <title>Artboard 2</title>
    <desc>Created with Sketch.</desc>
    <defs></defs>
    <g id="Page-1" stroke="none" stroke-width="1" fill="none" fill-rule="evenodd">
        <g id="Artboard-2" fill-rule="nonzero" fill="#434343">
            <g id="express-delivery--light" transform="translate(0.000000, 64.000000)">
                <path d="M326.422764,199.146341 C316.666667,199.146341 307.398374,202.96748 300.406504,209.878049 C293.414634,216.869919 289.512195,225.97561 289.512195,235.731707 C289.512195,245.487805 293.333333,254.593496 300.406504,261.585366 C307.479675,268.495935 316.666667,272.317073 326.422764,272.317073 C346.422764,272.317073 362.682927,255.894309 362.682927,235.731707 C362.682927,215.569106 346.422764,199.146341 326.422764,199.146341 Z M326.422764,256.056911 C315.203252,256.056911 305.772358,246.788618 305.772358,235.731707 C305.772358,224.674797 315.203252,215.406504 326.422764,215.406504 C337.479675,215.406504 346.422764,224.512195 346.422764,235.731707 C346.422764,246.95122 337.479675,256.056911 326.422764,256.056911 Z M335.853659,77.2764228 C334.390244,75.8943089 332.439024,75.1626016 330.406504,75.1626016 L288.699187,75.1626016 C284.227642,75.1626016 280.569106,78.8211382 280.569106,83.2926829 L280.569106,149.95935 C280.569106,154.430894 284.227642,158.089431 288.699187,158.089431 L354.878049,158.089431 C359.349593,158.089431 363.00813,154.430894 363.00813,149.95935 L363.00813,105.325203 C363.00813,103.04878 362.03252,100.853659 360.325203,99.3089431 L335.853659,77.2764228 Z M346.747967,141.829268 L296.829268,141.829268 L296.829268,91.3414634 L327.235772,91.3414634 L346.747967,108.902439 L346.747967,141.829268 Z M127.886179,199.146341 C118.130081,199.146341 108.861789,202.96748 101.869919,209.878049 C94.8780488,216.869919 90.9756098,225.97561 90.9756098,235.731707 C90.9756098,245.487805 94.796748,254.593496 101.869919,261.585366 C108.943089,268.495935 118.130081,272.317073 127.886179,272.317073 C147.886179,272.317073 164.146341,255.894309 164.146341,235.731707 C164.146341,215.569106 147.886179,199.146341 127.886179,199.146341 Z M127.886179,256.056911 C116.666667,256.056911 107.235772,246.788618 107.235772,235.731707 C107.235772,224.674797 116.666667,215.406504 127.886179,215.406504 C138.943089,215.406504 147.886179,224.512195 147.886179,235.731707 C147.886179,246.95122 138.943089,256.056911 127.886179,256.056911 Z M73.6585366,209.146341 L57.3170732,209.146341 L57.3170732,187.520325 C57.3170732,183.04878 53.6585366,179.390244 49.1869919,179.390244 C44.7154472,179.390244 41.0569106,183.04878 41.0569106,187.520325 L41.0569106,217.276423 C41.0569106,221.747967 44.7154472,225.406504 49.1869919,225.406504 L73.6585366,225.406504 C78.1300813,225.406504 81.7886179,221.747967 81.7886179,217.276423 C81.7886179,212.804878 78.1300813,209.146341 73.6585366,209.146341 Z M114.878049,164.837398 C114.878049,160.365854 111.219512,156.707317 106.747967,156.707317 L8.1300813,156.707317 C3.65853659,156.707317 0,160.365854 0,164.837398 C0,169.308943 3.65853659,172.96748 8.1300813,172.96748 L106.747967,172.96748 C111.219512,172.96748 114.878049,169.390244 114.878049,164.837398 Z M24.6341463,135.487805 L123.252033,136.056911 C127.723577,136.056911 131.382114,132.479675 131.463415,128.00813 C131.544715,123.455285 127.886179,119.796748 123.414634,119.796748 L24.796748,119.227642 C24.7154472,119.227642 24.7154472,119.227642 24.7154472,119.227642 C20.2439024,119.227642 16.5853659,122.804878 16.5853659,127.276423 C16.504065,131.829268 20.1626016,135.487805 24.6341463,135.487805 Z M41.2195122,98.5772358 L139.837398,98.5772358 C144.308943,98.5772358 147.96748,94.9186992 147.96748,90.4471545 C147.96748,85.9756098 144.308943,82.3170732 139.837398,82.3170732 L41.2195122,82.3170732 C36.7479675,82.3170732 33.0894309,85.9756098 33.0894309,90.4471545 C33.0894309,94.9186992 36.7479675,98.5772358 41.2195122,98.5772358 Z M396.260163,87.601626 L396.260163,87.601626 L338.04878,39.3902439 C336.585366,38.1707317 334.796748,37.5203252 332.845528,37.5203252 L264.390244,37.5203252 L264.390244,8.25203252 C264.390244,3.7804878 260.731707,0.12195122 256.260163,0.12195122 L49.1869919,0.12195122 C44.7154472,0.12195122 41.0569106,3.7804878 41.0569106,8.25203252 L41.0569106,67.7642276 C41.0569106,72.2357724 44.7154472,75.8943089 49.1869919,75.8943089 C53.6585366,75.8943089 57.3170732,72.2357724 57.3170732,67.7642276 L57.3170732,16.3821138 L248.211382,16.3821138 L248.211382,209.146341 L181.544715,209.146341 C177.073171,209.146341 173.414634,212.804878 173.414634,217.276423 C173.414634,221.747967 177.073171,225.406504 181.544715,225.406504 L280.813008,225.406504 C285.284553,225.406504 288.943089,221.747967 288.943089,217.276423 C288.943089,212.804878 285.284553,209.146341 280.813008,209.146341 L264.471545,209.146341 L264.471545,53.7804878 L330,53.7804878 L383.00813,97.6829268 L382.439024,208.98374 L373.98374,208.98374 C369.512195,208.98374 365.853659,212.642276 365.853659,217.113821 C365.853659,221.585366 369.512195,225.243902 373.98374,225.243902 L390.487805,225.243902 C394.95935,225.243902 398.617886,221.666667 398.617886,217.195122 L399.268293,93.9430894 C399.186992,91.504065 398.130081,89.1463415 396.260163,87.601626 Z" id="Shape"></path>
            </g>
        </g>
    </g>
</svg>