<?xml version="1.0" encoding="UTF-8" standalone="no"?>
<svg width="400px" height="400px" viewBox="0 0 400 400" version="1.1" xmlns="http://www.w3.org/2000/svg" xmlns:xlink="http://www.w3.org/1999/xlink">
    <!-- Generator: Sketch 46.2 (44496) - http://www.bohemiancoding.com/sketch -->
    <title>Artboard 2</title>
    <desc>Created with Sketch.</desc>
    <defs></defs>
    <g id="Page-1" stroke="none" stroke-width="1" fill="none" fill-rule="evenodd">
        <g id="Artboard-2" fill="#434343">
            <g id="pickup--dark" transform="translate(0.000000, 13.000000)">
                <path d="M137.626667,168.826667 C114.64,168.826667 95.6533333,151.013333 95.6533333,129.36 C95.6533333,107.76 114.64,89.92 137.626667,89.92 C160.64,89.92 179.626667,107.76 179.626667,129.386667 C179.626667,150.986667 160.64,168.853333 137.626667,168.853333 L137.626667,168.826667 Z M137.626667,71.3333333 C103.733333,71.3333333 75.8933333,97.52 75.8933333,129.386667 C75.8933333,161.253333 103.733333,187.413333 137.6,187.413333 C171.52,187.413333 199.36,161.253333 199.36,129.386667 C199.36,97.52 171.52,71.3333333 137.6,71.3333333 L137.626667,71.3333333 Z M307.173333,233.733333 C293.013333,233.733333 281.493333,222.88 281.493333,209.573333 C281.493333,196.24 293.013333,185.44 307.173333,185.44 C321.306667,185.44 332.853333,196.266667 332.853333,209.573333 C332.853333,222.88 321.333333,233.706667 307.173333,233.706667 L307.173333,233.733333 Z M307.173333,169.386667 C283.573333,169.386667 264.4,187.413333 264.4,209.573333 C264.4,231.733333 283.6,249.76 307.173333,249.76 C330.746667,249.76 349.946667,231.733333 349.946667,209.573333 C349.946667,187.413333 330.746667,169.386667 307.173333,169.386667 Z M382.906667,212.266667 C382.64,219.466667 381.173333,226.666667 378.506667,233.733333 L378.4,234.32 C364.346667,277.466667 323.28,335.226667 307.173333,355.76 C291.653333,335.973333 253.013333,281.653333 237.706667,239.253333 C249.973333,216.666667 260.746667,193.84 267.6,173.013333 C270.8,164.053333 273.093333,154.88 274.32,145.546667 C284.266667,140.986667 295.386667,138.346667 307.173333,138.346667 C327.653333,138.346667 346.64,145.733333 360.613333,159.12 C375.013333,172.373333 382.906667,190.32 382.906667,209.573333 L382.906667,212.24 L382.906667,212.266667 Z M138.453333,354.746667 C138.053333,354.746667 138.053333,355.12 137.653333,355.12 C137.226667,355.12 136.853333,354.746667 136.853333,354.746667 C115.44,327.813333 48.8533333,236 26.64,166.933333 L26.64,166.56 C22.5536882,155.878281 20.2387928,144.601047 19.7866667,133.173333 L19.7866667,129.386667 C19.7866667,68.2666667 72.6666667,18.5866667 137.653333,18.5866667 C169.12,18.5866667 198.986667,29.9733333 220.8,50.8533333 C242.9046,70.9773403 255.492475,99.4937189 255.466667,129.386667 L255.466667,133.546667 C255.014541,144.974381 252.699645,156.251614 248.613333,166.933333 L248.613333,167.306667 C226.4,236 159.813333,327.813333 138.426667,354.746667 L138.453333,354.746667 Z M372.773333,147.893333 C354.977989,131.296164 331.506762,122.136661 307.173333,122.293333 C295.946667,122.293333 285.2,124.186667 275.226667,127.626667 C274.746667,93.76 260.293333,61.8133333 234.906667,37.9466667 C208.493752,13.3739566 173.701881,-0.197543354 137.626667,0 C61.76,0 0,58.0533333 0,129.386667 L0,133.92 C0.4,147.2 2.82666667,160.106667 7.68,172.64 C31.0666667,243.946667 99.3066667,338.426667 121.093333,365.733333 C125.176974,370.629496 131.251662,373.421893 137.626667,373.333333 C144.106667,373.333333 150.16,370.666667 154.186667,365.733333 C167.786667,348.666667 199.52,305.466667 227.093333,258.106667 C246.373333,301.52 281.973333,350.8 294.64,366.693333 C297.740741,370.394966 302.345175,372.501249 307.173333,372.426667 C312.005903,372.494676 316.611099,370.378245 319.706667,366.666667 C334.293333,348.373333 379.44,285.653333 394.826667,238.96 C398.026667,229.893333 399.733333,221.36 400,212.826667 L400,209.573333 C400,186.293333 390.32,164.4 372.8,147.893333 L372.773333,147.893333 Z" id="Shape"></path>
            </g>
        </g>
    </g>
</svg>