<svg id="Layer_1" data-name="Layer 1" xmlns="http://www.w3.org/2000/svg" viewBox="0 0 14 14"><defs><style>.cls-1{fill:#a8d470;}.cls-2{fill:#fff;}</style></defs><title>question_green_icon</title><g id="Layer_2" data-name="Layer 2"><circle class="cls-1" cx="7" cy="7" r="7"/></g><path class="cls-2" d="M10.31,13a3.58,3.58,0,0,1,1.46-2.53c.54-.54,1-1,1-1.64A1.13,1.13,0,0,0,11.5,7.62,1.63,1.63,0,0,0,9.88,9.26H8.2a3.14,3.14,0,0,1,3.39-3.08c2.07,0,3,1.13,3,2.53A3.24,3.24,0,0,1,13.35,11c-.68.65-1.38,1.25-1.42,2.06v.46H10.31Zm-.39,2.65a1.15,1.15,0,0,1,1.19-1.13,1.12,1.12,0,1,1,0,2.24A1.15,1.15,0,0,1,9.92,15.65Z" transform="translate(-4.36 -4.39)"/></svg>