<?xml version="1.0" encoding="UTF-8" standalone="no"?>
<svg width="300px" height="300px" viewBox="0 0 300 300" version="1.1" xmlns="http://www.w3.org/2000/svg" xmlns:xlink="http://www.w3.org/1999/xlink">
    <!-- Generator: Sketch 46.2 (44496) - http://www.bohemiancoding.com/sketch -->
    <title>Artboard 2</title>
    <desc>Created with Sketch.</desc>
    <defs></defs>
    <g id="Page-1" stroke="none" stroke-width="1" fill="none" fill-rule="evenodd">
        <g id="Artboard-2" fill-rule="nonzero" fill="#434343">
            <g id="delivery" transform="translate(74.000000, 83.000000)">
                <path d="M195.025381,54.974359 L169.786802,35.5042735 C168.639594,34.3589744 167.492386,33.2136752 166.345178,33.2136752 L160.609137,33.2136752 C158.314721,33.2136752 154.873096,35.5042735 154.873096,38.9401709 L154.873096,59.5555556 C154.873096,61.8461538 157.167513,65.2820513 160.609137,65.2820513 L190.436548,65.2820513 C191.583756,65.2820513 195.025381,64.1367521 196.172589,61.8461538 C196.172589,59.5555556 196.172589,57.2649573 195.025381,54.974359 Z M162.903553,56.1196581 L162.903553,41.2307692 L182.406091,57.2649573 L162.903553,57.2649573 L162.903553,56.1196581 Z M74.5685279,109.948718 L154.873096,109.948718 L154.873096,111.094017 C156.020305,123.692308 166.345178,134 180.111675,134 C193.878173,134 204.203046,124.837607 205.350254,111.094017 L205.350254,109.948718 L213.380711,109.948718 C220.263959,109.948718 226,104.222222 226,96.2051282 L226,62.991453 C226,59.5555556 223.705584,54.974359 220.263959,51.5384615 L184.700508,19.4700855 C182.406091,17.1794872 177.817259,14.8888889 173.228426,14.8888889 L142.253807,14.8888889 L142.253807,12.5982906 C142.253807,5.72649573 136.517766,0 129.634518,0 L12.6192893,0 C5.73604061,-4.45038118e-15 0,5.72649573 0,12.5982906 L0,96.2051282 C0,103.076923 5.73604061,109.948718 12.6192893,109.948718 L24.0913706,109.948718 L24.0913706,111.094017 C25.2385787,123.692308 35.5634518,134 49.3299492,134 C63.0964467,134 73.4213198,124.837607 74.5685279,111.094017 L74.5685279,109.948718 Z M177.817259,125.982906 C168.639594,125.982906 160.609137,117.965812 160.609137,108.803419 C161.756345,100.786325 167.492386,91.6239316 177.817259,91.6239316 C186.994924,91.6239316 193.878173,98.4957265 193.878173,108.803419 C195.025381,117.965812 186.994924,125.982906 177.817259,125.982906 L177.817259,125.982906 Z M141.106599,22.9059829 L172.081218,22.9059829 C174.375635,22.9059829 176.670051,24.0512821 177.817259,25.1965812 L213.380711,57.2649573 C215.675127,57.2649573 217.969543,59.5555556 217.969543,61.8461538 L217.969543,95.0598291 C217.969543,97.3504274 215.675127,100.786325 212.233503,100.786325 L201.908629,100.786325 L201.908629,99.6410256 C198.467005,90.4786325 189.28934,83.6068376 177.817259,83.6068376 C167.492386,83.6068376 158.314721,89.3333333 153.725888,99.6410256 L153.725888,100.786325 L142.253807,100.786325 L142.253807,22.9059829 L141.106599,22.9059829 L141.106599,22.9059829 Z M49.3299492,125.982906 C40.1522843,125.982906 33.2690355,117.965812 33.2690355,108.803419 C33.2690355,99.6410256 41.2994924,91.6239316 49.3299492,91.6239316 C57.3604061,91.6239316 65.3908629,99.6410256 65.3908629,108.803419 C65.3908629,117.965812 58.5076142,125.982906 49.3299492,125.982906 Z M72.2741117,99.6410256 C68.8324873,90.4786325 59.6548223,83.6068376 49.3299492,83.6068376 C39.0050761,83.6068376 29.8274112,89.3333333 25.2385787,99.6410256 L25.2385787,100.786325 L12.6192893,100.786325 C10.3248731,100.786325 8.03045685,98.4957265 8.03045685,95.0598291 L8.03045685,12.5982906 C8.03045685,9.16239316 11.4720812,8.01709402 12.6192893,8.01709402 L129.634518,8.01709402 C131.928934,8.01709402 135.370558,9.16239316 135.370558,12.5982906 L135.370558,101.931624 L72.2741117,101.931624 L72.2741117,99.6410256 L72.2741117,99.6410256 Z" id="Shape"></path>
            </g>
        </g>
    </g>
</svg>