<?xml version="1.0" encoding="UTF-8" standalone="no"?>
<svg width="400px" height="400px" viewBox="0 0 400 400" version="1.1" xmlns="http://www.w3.org/2000/svg" xmlns:xlink="http://www.w3.org/1999/xlink">
    <!-- Generator: Sketch 46.2 (44496) - http://www.bohemiancoding.com/sketch -->
    <title>Artboard 2</title>
    <desc>Created with Sketch.</desc>
    <defs></defs>
    <g id="Page-1" stroke="none" stroke-width="1" fill="none" fill-rule="evenodd">
        <g id="Artboard-2" fill-rule="nonzero" fill="#434343">
            <g id="delivery-truck" transform="translate(41.000000, 64.000000)">
                <path d="M285.422764,199.146341 C275.666667,199.146341 266.398374,202.96748 259.406504,209.878049 C252.414634,216.869919 248.512195,225.97561 248.512195,235.731707 C248.512195,245.487805 252.333333,254.593496 259.406504,261.585366 C266.479675,268.495935 275.666667,272.317073 285.422764,272.317073 C305.422764,272.317073 321.682927,255.894309 321.682927,235.731707 C321.682927,215.569106 305.422764,199.146341 285.422764,199.146341 Z M285.422764,256.056911 C274.203252,256.056911 264.772358,246.788618 264.772358,235.731707 C264.772358,224.674797 274.203252,215.406504 285.422764,215.406504 C296.479675,215.406504 305.422764,224.512195 305.422764,235.731707 C305.422764,246.95122 296.479675,256.056911 285.422764,256.056911 Z M294.853659,77.2764228 C293.390244,75.8943089 291.439024,75.1626016 289.406504,75.1626016 L247.699187,75.1626016 C243.227642,75.1626016 239.569106,78.8211382 239.569106,83.2926829 L239.569106,149.95935 C239.569106,154.430894 243.227642,158.089431 247.699187,158.089431 L313.878049,158.089431 C318.349593,158.089431 322.00813,154.430894 322.00813,149.95935 L322.00813,105.325203 C322.00813,103.04878 321.03252,100.853659 319.325203,99.3089431 L294.853659,77.2764228 Z M305.747967,141.829268 L255.829268,141.829268 L255.829268,91.3414634 L286.235772,91.3414634 L305.747967,108.902439 L305.747967,141.829268 Z M86.8861789,199.146341 C77.1300813,199.146341 67.8617886,202.96748 60.8699187,209.878049 C53.8780488,216.869919 49.9756098,225.97561 49.9756098,235.731707 C49.9756098,245.487805 53.796748,254.593496 60.8699187,261.585366 C67.9430894,268.495935 77.1300813,272.317073 86.8861789,272.317073 C106.886179,272.317073 123.146341,255.894309 123.146341,235.731707 C123.146341,215.569106 106.886179,199.146341 86.8861789,199.146341 Z M86.8861789,256.056911 C75.6666667,256.056911 66.2357724,246.788618 66.2357724,235.731707 C66.2357724,224.674797 75.6666667,215.406504 86.8861789,215.406504 C97.9430894,215.406504 106.886179,224.512195 106.886179,235.731707 C106.886179,246.95122 97.9430894,256.056911 86.8861789,256.056911 Z M355.260163,87.601626 L297.04878,39.3902439 C295.585366,38.1707317 293.796748,37.5203252 291.845528,37.5203252 L223.390244,37.5203252 L223.390244,8.25203252 C223.390244,3.7804878 219.731707,0.12195122 215.260163,0.12195122 L8.18699187,0.12195122 C3.71544715,0.12195122 0.0569105691,3.7804878 0.0569105691,8.25203252 L0.0569105691,67.7642276 C0.0569105691,70.7452575 0.0379403794,120.823848 0,218 C0.298198454,219.389994 0.631531787,220.389994 1,221 C1.80117576,222.326362 3.27722619,223.594747 4,224 C6.43773102,225.366813 9.12980765,225.461188 11,225.406504 C12.2867769,225.368879 19.9534436,225.368879 34,225.406504 C36.6142077,224.539675 38.2808743,223.737507 39,223 C40.8953981,221.056155 41,218.212018 41,217.113821 C41,216.0678 40.7195753,213.769287 39,212 C38.2578586,211.236404 36.5911919,210.236404 34,209 L16,209 L16.3170732,16.3821138 L207.211382,16.3821138 L207.211382,209.146341 L140.544715,209.146341 C136.073171,209.146341 132.414634,212.804878 132.414634,217.276423 C132.414634,221.747967 136.073171,225.406504 140.544715,225.406504 L239.813008,225.406504 C244.284553,225.406504 247.943089,221.747967 247.943089,217.276423 C247.943089,212.804878 244.284553,209.146341 239.813008,209.146341 L223.471545,209.146341 L223.471545,53.7804878 L289,53.7804878 L342.00813,97.6829268 L341.439024,208.98374 L332.98374,208.98374 C328.512195,208.98374 324.853659,212.642276 324.853659,217.113821 C324.853659,221.585366 328.512195,225.243902 332.98374,225.243902 L349.487805,225.243902 C353.95935,225.243902 357.617886,221.666667 357.617886,217.195122 L358.268293,93.9430894 C358.186992,91.504065 357.130081,89.1463415 355.260163,87.601626 Z" id="Shape"></path>
            </g>
        </g>
    </g>
</svg>