<?xml version="1.0" encoding="UTF-8" standalone="no"?>
<svg width="300px" height="300px" viewBox="0 0 300 300" version="1.1" xmlns="http://www.w3.org/2000/svg" xmlns:xlink="http://www.w3.org/1999/xlink">
    <!-- Generator: Sketch 46.2 (44496) - http://www.bohemiancoding.com/sketch -->
    <title>Artboard</title>
    <desc>Created with Sketch.</desc>
    <defs></defs>
    <g id="Page-1" stroke="none" stroke-width="1" fill="none" fill-rule="evenodd">
        <g id="Artboard" fill-rule="nonzero" fill="#434343">
            <g id="exp" transform="translate(0.000000, 82.000000)">
                <path d="M3.22739251e-16,61.6180921 C3.22739251e-16,59.292881 2.3255814,56.96767 4.65116279,56.96767 L51.1627907,56.96767 C53.4883721,56.96767 55.8139535,59.292881 55.8139535,61.6180921 C55.8139535,63.9433031 53.4883721,66.2685141 51.1627907,66.2685141 L4.65116279,66.2685141 C2.3255814,66.2685141 0,63.9433031 3.22739251e-16,61.6180921 Z M146.511628,112.772735 C145.348837,125.561395 134.883721,136.024845 120.930233,136.024845 C106.976744,136.024845 96.5116279,126.724001 95.3488372,112.772735 L95.3488372,111.610129 L83.7209302,111.610129 C76.744186,111.610129 70.9302326,105.797101 70.9302326,97.6588629 L70.9302326,12.7886606 C70.9302326,5.81302755 76.744186,0 83.7209302,0 L202.325581,0 C209.302326,0 215.116279,5.81302755 215.116279,12.7886606 L215.116279,15.1138716 L246.511628,15.1138716 C251.162791,15.1138716 255.813953,16.2764771 258.139535,19.7642937 L294.186047,52.317248 C297.674419,55.8050645 300,60.4554865 300,63.9433031 L300,97.6588629 C300,104.634496 294.186047,111.610129 287.209302,111.610129 L277.906977,111.610129 L277.906977,112.772735 C276.744186,125.561395 266.27907,136.024845 252.325581,136.024845 C238.372093,136.024845 227.906977,126.724001 226.744186,112.772735 L226.744186,111.610129 L145.348837,111.610129 L146.511628,112.772735 L146.511628,112.772735 Z M268.604651,110.447523 C268.604651,101.146679 261.627907,93.0084408 252.325581,93.0084408 C241.860465,93.0084408 236.046512,101.146679 234.883721,110.447523 C234.883721,119.748368 243.023256,127.886606 252.325581,127.886606 C261.627907,127.886606 268.604651,119.748368 268.604651,110.447523 Z M213.953488,103.47189 L225.581395,103.47189 L225.581395,102.309285 C230.232558,91.8458353 239.534884,86.0328078 250,86.0328078 C261.627907,86.0328078 270.930233,93.0084408 274.418605,102.309285 L274.418605,103.47189 L284.883721,103.47189 C288.372093,103.47189 290.697674,99.9840739 290.697674,97.6588629 L290.697674,63.9433031 C290.697674,60.4554865 289.534884,59.292881 286.046512,59.292881 L250,26.7399267 C248.837209,25.5773212 245.348837,24.4147157 244.186047,24.4147157 L212.790698,24.4147157 L212.790698,103.47189 L213.953488,103.47189 L213.953488,103.47189 Z M137.209302,110.447523 C137.209302,101.146679 129.069767,93.0084408 120.930233,93.0084408 C112.790698,93.0084408 104.651163,101.146679 104.651163,110.447523 C104.651163,119.748368 112.790698,127.886606 120.930233,127.886606 C129.069767,127.886606 137.209302,119.748368 137.209302,110.447523 Z M144.186047,103.47189 L208.139535,103.47189 L208.139535,12.7886606 C208.139535,9.30084408 204.651163,8.13823857 202.325581,8.13823857 L83.7209302,8.13823857 C81.3953488,8.13823857 79.0697674,9.30084408 79.0697674,12.7886606 L79.0697674,97.6588629 C79.0697674,101.146679 82.5581395,103.47189 83.7209302,103.47189 L96.5116279,103.47189 L96.5116279,102.309285 C101.162791,91.8458353 110.465116,86.0328078 120.930233,86.0328078 C131.395349,86.0328078 140.697674,93.0084408 144.186047,102.309285 L144.186047,103.47189 L144.186047,103.47189 Z M269.767442,62.7806976 C268.604651,65.1059086 266.27907,66.2685141 263.953488,66.2685141 L233.72093,66.2685141 C231.395349,66.2685141 227.906977,63.9433031 227.906977,60.4554865 L227.906977,39.5285874 C227.906977,37.2033763 230.232558,33.7155598 233.72093,33.7155598 L239.534884,33.7155598 C239.534884,33.7155598 241.860465,34.8781653 243.023256,36.0407708 L268.604651,55.8050645 C269.767442,58.1302755 269.767442,60.4554865 269.767442,62.7806976 L269.767442,62.7806976 Z M255.813953,56.96767 L236.046512,40.6911929 L236.046512,56.96767 L255.813953,56.96767 Z M16.2790698,43.0164039 L62.7906977,43.0164039 C65.1162791,43.0164039 67.4418605,40.6911929 67.4418605,38.3659818 C67.4418605,36.0407708 65.1162791,33.7155598 62.7906977,33.7155598 L16.2790698,33.7155598 C13.9534884,33.7155598 11.627907,36.0407708 11.627907,38.3659818 C11.627907,40.6911929 13.9534884,43.0164039 16.2790698,43.0164039 Z M16.2790698,88.3580188 L62.7906977,88.3580188 C65.1162791,88.3580188 67.4418605,86.0328078 67.4418605,84.8702023 C67.4418605,83.7075968 65.1162791,81.3823857 62.7906977,81.3823857 L16.2790698,81.3823857 C13.9534884,81.3823857 11.627907,83.7075968 11.627907,84.8702023 C11.627907,86.0328078 13.9534884,88.3580188 16.2790698,88.3580188 Z" id="Shape"></path>
            </g>
        </g>
    </g>
</svg>