<?xml version="1.0" encoding="UTF-8" standalone="no"?>
<svg width="300px" height="300px" viewBox="0 0 300 300" version="1.1" xmlns="http://www.w3.org/2000/svg" xmlns:xlink="http://www.w3.org/1999/xlink">
    <!-- Generator: Sketch 46.2 (44496) - http://www.bohemiancoding.com/sketch -->
    <title>Artboard</title>
    <desc>Created with Sketch.</desc>
    <defs></defs>
    <g id="Page-1" stroke="none" stroke-width="1" fill="none" fill-rule="evenodd">
        <g id="Artboard" fill-rule="nonzero" fill="#434343">
            <g id="pickup" transform="translate(86.000000, 50.000000)">
                <path d="M73.5265755,90.4429862 C61.2460274,90.4429862 51.1024657,80.9002353 51.1024657,69.300365 C51.1024657,57.7290657 61.2460274,48.1720297 73.5265755,48.1720297 C85.8213699,48.1720297 95.9649317,57.7290657 95.9649317,69.3146508 C95.9649317,80.8859501 85.8213699,90.4572714 73.5265755,90.4572714 L73.5265755,90.4429862 Z M73.5265755,38.214998 C55.4191779,38.214998 40.5457534,52.2434127 40.5457534,69.3146508 C40.5457534,86.3858883 55.4191779,100.400017 73.5123288,100.400017 C91.6339726,100.400017 106.507397,86.3858883 106.507397,69.3146508 C106.507397,52.2434127 91.6339726,38.214998 73.5123288,38.214998 L73.5265755,38.214998 Z M164.106301,125.214026 C156.54137,125.214026 150.386849,119.399805 150.386849,112.271313 C150.386849,105.128536 156.54137,99.3428866 164.106301,99.3428866 C171.656986,99.3428866 177.825753,105.142822 177.825753,112.271313 C177.825753,119.399805 171.671233,125.199741 164.106301,125.199741 L164.106301,125.214026 Z M164.106301,90.7429828 C151.498082,90.7429828 141.254795,100.400017 141.254795,112.271313 C141.254795,124.142609 151.512329,133.799644 164.106301,133.799644 C176.700274,133.799644 186.957808,124.142609 186.957808,112.271313 C186.957808,100.400017 176.700274,90.7429828 164.106301,90.7429828 Z M204.566576,113.714155 C204.42411,117.571255 203.640548,121.428354 202.215891,125.214026 L202.158904,125.528308 C194.650959,148.642336 172.711233,179.584847 164.106301,190.584724 C155.814794,179.984843 135.171507,150.885168 126.993973,128.171136 C133.547397,116.071271 139.303014,103.842836 142.964384,92.6858179 C144.673973,87.8858715 145.899178,82.9716409 146.554521,77.9716969 C151.868493,75.5288671 157.809315,74.1145972 164.106301,74.1145972 C175.047671,74.1145972 185.191233,78.0716954 192.656438,85.2430441 C200.349589,92.3429646 204.566576,101.957143 204.566576,112.271313 L204.566576,113.699869 L204.566576,113.714155 Z M73.968219,190.041873 C73.7545204,190.041873 73.7545204,190.241871 73.5408217,190.241871 C73.3128769,190.241871 73.1134245,190.041873 73.1134245,190.041873 C61.6734247,175.613463 26.099726,126.428298 14.2323288,89.4287114 L14.2323288,89.2287138 C12.0492307,83.5064283 10.8125057,77.4651204 10.5709589,71.3431992 L10.5709589,69.3146508 C10.5709589,36.5721593 38.8219178,9.95817089 73.5408217,9.95817089 C90.3517808,9.95817089 106.307945,16.0581027 117.961644,27.243692 C129.770951,38.0242896 136.49598,53.3007503 136.482192,69.3146508 L136.482192,71.5431973 C136.240645,77.6651186 135.00392,83.7064259 132.820822,89.4287114 L132.820822,89.6287095 C120.953425,126.428298 85.3797258,175.613463 73.9539728,190.041873 L73.968219,190.041873 Z M199.152877,79.2288254 C189.645775,70.3375842 177.106352,65.4307624 164.106301,65.5146929 C158.108493,65.5146929 152.367123,66.5289676 147.038904,68.3718042 C146.782466,50.2291495 139.060822,33.115055 125.498082,20.3294836 C111.387073,7.16567882 92.7996351,-0.104686363 73.5265755,0.0011392516 C32.9950685,0.0011392516 0,31.1007918 0,69.3146508 L0,71.7431949 C0.21369863,78.8574011 1.51013699,85.7716098 4.1030137,92.4858203 C16.5972603,130.685394 53.0542466,181.299114 64.6936985,195.927522 C66.8753697,198.550437 70.1207509,200.046347 73.5265755,199.998905 C76.9884933,199.998905 80.2224658,198.57035 82.3736988,195.927522 C89.6394522,186.784767 106.592877,163.642168 121.323835,138.271023 C131.624109,161.527906 150.643287,187.927611 157.410411,196.441802 C159.066971,198.424797 161.526874,199.55315 164.106301,199.513196 C166.688085,199.549629 169.148395,198.41584 170.802192,196.427516 C178.595068,186.627626 202.714521,153.028001 210.934795,128.013995 C212.644384,123.156906 213.556164,118.585529 213.69863,114.014151 L213.69863,112.271313 C213.69863,99.8000241 208.527123,88.0715839 199.167123,79.2288254 L199.152877,79.2288254 Z" id="Shape"></path>
            </g>
        </g>
    </g>
</svg>