<svg xmlns="http://www.w3.org/2000/svg" xmlns:xlink="http://www.w3.org/1999/xlink" width="48" height="48" viewBox="0 0 48 48">
    <defs>
        <rect id="a" width="48" height="48" rx="10"/>
        <path id="c" d="M22.558 22.086a.824.824 0 0 1-.622-.283l-3.255-3.77a.78.78 0 0 1 .098-1.12.827.827 0 0 1 1.147.097l2.543 2.946 4.083-6.237a.826.826 0 0 1 1.124-.24c.378.234.49.727.247 1.096l-4.68 7.145a.82.82 0 0 1-.63.365l-.055.001m6.66 12.85c0-.815-.69-1.479-1.535-1.479-.846 0-1.533.664-1.533 1.48 0 .813.687 1.474 1.533 1.474.845 0 1.534-.661 1.534-1.475m1.52 0c0 1.632-1.37 2.959-3.054 2.959-1.685 0-3.054-1.327-3.054-2.959 0-1.634 1.37-2.963 3.054-2.963 1.685 0 3.055 1.33 3.055 2.963m-11.973 0c0-.815-.689-1.479-1.534-1.479-.845 0-1.533.664-1.533 1.48 0 .813.688 1.474 1.533 1.474s1.534-.661 1.534-1.475m1.52 0c0 1.632-1.37 2.959-3.054 2.959-1.683 0-3.053-1.327-3.053-2.959 0-1.634 1.37-2.963 3.053-2.963 1.684 0 3.055 1.33 3.055 2.963M40.42 12.112a.75.75 0 0 1-.76.742l-3.781.001h-.023c-.55 0-1.287.581-1.396 1.09l-3.2 13.073c-.512 1.962-2.388 3.402-4.461 3.436H15.544a.752.752 0 0 1-.76-.742c0-.41.34-.742.76-.742h11.243c1.388-.022 2.654-.992 2.997-2.306l.074-.305-.008.002H15.318c-.935 0-1.735-.584-1.946-1.422l-1.982-7.873c-.1-.398.15-.8.558-.898a.762.762 0 0 1 .92.544l1.98 7.873c.043.167.244.293.47.293H29.85c.127 0 .242.038.348.092l2.78-11.348c.255-1.208 1.637-2.315 2.925-2.25l3.758-.002c.42 0 .76.332.76.742"/>
    </defs>
    <g fill="none" fill-rule="evenodd">
        <mask id="b" fill="#fff">
            <use xlink:href="#a"/>
        </mask>
        <g mask="url(#b)">
            <mask id="d" fill="#fff">
                <use xlink:href="#c"/>
            </mask>
            <use fill="#9D9D9D" xlink:href="#c"/>
            <g fill="#fff" mask="url(#d)">
                <path d="M0 0h51v51H0z"/>
            </g>
        </g>
    </g>
</svg>
